<?xml version="1.0" encoding="UTF-8"?>
<svg width="31px" height="24px" viewBox="0 0 31 24" version="1.1" xmlns="http://www.w3.org/2000/svg" xmlns:xlink="http://www.w3.org/1999/xlink">
    <!-- Generator: Sketch 52.6 (67491) - http://www.bohemiancoding.com/sketch -->
    <title>Shape</title>
    <desc>Created with Sketch.</desc>
    <g id="Native-Mobile-App" stroke="none" stroke-width="1" fill="none" fill-rule="evenodd">
        <g id="iPhone-X-Copy-6" transform="translate(-170.000000, -81.000000)" fill="#000000" fill-rule="nonzero">
            <g id="noun_22597_cc" transform="translate(170.000000, 81.000000)">
                <g id="Group">
                    <path d="M22.062724,2.77365067 L21.4613,1.84375 C20.7177984,0.69417399 19.4421247,-1.13967028e-15 18.0730668,-8.8817842e-16 L12.9269332,-8.8817842e-16 C11.5578753,-6.36686557e-16 10.2822016,0.69417399 9.5387,1.84375 L8.93727597,2.77365067 C8.56876156,3.34343468 7.9364776,3.6875 7.25790802,3.6875 L3,3.6875 C1.34314575,3.6875 -2.02906125e-16,5.03064575 0,6.6875 L0,22 C1.3527075e-16,23.1045695 0.8954305,24 2,24 L29,24 C30.1045695,24 31,23.1045695 31,22 L31,6.6875 C31,5.03064575 29.6568542,3.6875 28,3.6875 L23.742092,3.6875 C23.0635224,3.6875 22.4312384,3.34343468 22.062724,2.77365067 Z M15.5,20.875 C11.5492222,20.875 8.34623333,17.6461806 8.34623333,13.6631944 C8.34623333,9.68020833 11.5492222,6.45243056 15.5,6.45243056 C19.4507778,6.45243056 22.6537667,9.68055556 22.6537667,13.6631944 C22.6537667,17.6458333 19.4507778,20.875 15.5,20.875 Z" id="Shape"></path>
                </g>
            </g>
        </g>
    </g>
</svg>