<?xml version="1.0" encoding="UTF-8"?>
<svg width="19px" height="19px" viewBox="0 0 19 19" version="1.1" xmlns="http://www.w3.org/2000/svg" xmlns:xlink="http://www.w3.org/1999/xlink">
    <!-- Generator: Sketch 52.6 (67491) - http://www.bohemiancoding.com/sketch -->
    <title>Group</title>
    <desc>Created with Sketch.</desc>
    <g id="Native-Mobile-App" stroke="none" stroke-width="1" fill="none" fill-rule="evenodd">
        <g id="iPhone-X-Copy-9" transform="translate(-220.000000, -629.000000)" fill="#FFFFFF" fill-rule="nonzero">
            <g id="Teclado" transform="translate(0.000000, 615.000000)">
                <g id="ICONS" transform="translate(7.000000, 0.000000)">
                    <g id="link" transform="translate(213.000000, 14.000000)">
                        <g id="Group">
                            <path d="M1.93064516,17.0693548 C3.18709677,18.3258065 4.84193548,18.9387097 6.46612903,18.9387097 C8.12096774,18.9387097 9.77580645,18.3258065 11.0016129,17.0693548 L12.0741935,15.9967742 C12.6870968,15.383871 12.6870968,14.433871 12.0741935,13.8209677 C11.4612903,13.2080645 10.5112903,13.2080645 9.8983871,13.8209677 L8.82580645,14.8935484 C7.50806452,16.2112903 5.36290323,16.2112903 4.04516129,14.8935484 C2.72741935,13.5758065 2.72741935,11.4306452 4.04516129,10.1129032 L5.11774194,9.04032258 C5.73064516,8.42741935 5.73064516,7.47741935 5.11774194,6.86451613 C4.50483871,6.2516129 3.55483871,6.2516129 2.94193548,6.86451613 L1.86935484,7.93709677 C-0.582258065,10.4806452 -0.582258065,14.5870968 1.93064516,17.0693548 Z" id="Shape"></path>
                            <path d="M13.8209677,9.92903226 C13.2080645,10.5419355 13.2080645,11.4919355 13.8209677,12.1048387 C14.1274194,12.4112903 14.5258065,12.5645161 14.8935484,12.5645161 C15.2612903,12.5645161 15.6903226,12.4112903 15.966129,12.1048387 L17.0387097,11.0322581 C18.2645161,9.80645161 18.9387097,8.21290323 18.9387097,6.49677419 C18.9387097,4.78064516 18.2645161,3.15645161 17.0387097,1.96129032 C14.5258065,-0.551612903 10.45,-0.551612903 7.93709677,1.96129032 L6.86451613,3.03387097 C6.2516129,3.64677419 6.2516129,4.59677419 6.86451613,5.20967742 C7.47741935,5.82258065 8.42741935,5.82258065 9.04032258,5.20967742 L10.1129032,4.13709677 C11.4306452,2.81935484 13.5758065,2.81935484 14.8935484,4.13709677 C15.5370968,4.78064516 15.8741935,5.60806452 15.8741935,6.52741935 C15.8741935,7.41612903 15.5370968,8.27419355 14.8935484,8.91774194 L13.8209677,9.92903226 Z" id="Shape"></path>
                            <path d="M10.1435484,6.68064516 L6.68064516,10.1435484 C6.06774194,10.7564516 6.06774194,11.7064516 6.68064516,12.3193548 C6.98709677,12.6258065 7.38548387,12.7790323 7.75322581,12.7790323 C8.1516129,12.7790323 8.55,12.6258065 8.82580645,12.3193548 L12.2887097,8.85645161 C12.9016129,8.24354839 12.9016129,7.29354839 12.2887097,6.68064516 C11.7064516,6.0983871 10.7564516,6.0983871 10.1435484,6.68064516 Z" id="Shape"></path>
                        </g>
                    </g>
                </g>
            </g>
        </g>
    </g>
</svg>