<?xml version="1.0" encoding="UTF-8"?>
<svg width="15px" height="15px" viewBox="0 0 15 15" version="1.1" xmlns="http://www.w3.org/2000/svg" xmlns:xlink="http://www.w3.org/1999/xlink">
    <!-- Generator: Sketch 52.6 (67491) - http://www.bohemiancoding.com/sketch -->
    <title>Group 2</title>
    <desc>Created with Sketch.</desc>
    <g id="Native-Mobile-App" stroke="none" stroke-width="1" fill="none" fill-rule="evenodd">
        <g id="TOP-STORIES" transform="translate(-347.000000, -15.000000)">
            <g id="Group-2" transform="translate(347.000000, 15.000000)">
                <path style="fill: #bcbcbc;" d="M10.5,10.5 L12.5355339,12.5355339" id="Line" stroke="#bcbcbc" stroke-width="3" stroke-linecap="square"></path>
                <path style="fill: #bcbcbc;" d="M6.5,13 C2.91014913,13 0,10.0898509 0,6.5 C0,2.91014913 2.91014913,0 6.5,0 C10.0898509,0 13,2.91014913 13,6.5 C13,10.0898509 10.0898509,13 6.5,13 Z M6.5,10.5 C8.709139,10.5 10.5,8.709139 10.5,6.5 C10.5,4.290861 8.709139,2.5 6.5,2.5 C4.290861,2.5 2.5,4.290861 2.5,6.5 C2.5,8.709139 4.290861,10.5 6.5,10.5 Z" id="Combined-Shape" fill="#bcbcbc"></path>
            </g>
        </g>
    </g>
</svg>
